HIERARCHY
ROOT hip
{
  OFFSET -0.163291 85.6566 0.546495
  CHANNELS 6 Xposition Yposition Zposition Zrotation Xrotation Yrotation
  JOINT abdomen
  {
    OFFSET 0 7.2397 0
    CHANNELS 6 Xposition Yposition Zposition Zrotation Xrotation Yrotation
    JOINT chest
    {
      OFFSET 0 16.546 0
      CHANNELS 6 Xposition Yposition Zposition Zrotation Xrotation Yrotation
      JOINT neck
      {
        OFFSET 0 34.2149 0
        CHANNELS 6 Xposition Yposition Zposition Zrotation Xrotation Yrotation
        JOINT head
        {
          OFFSET 0 6.2923 0
          CHANNELS 6 Xposition Yposition Zposition Zrotation Xrotation Yrotation
          End Site
          {
            OFFSET 0 21.2161 0
          }
        }
      }
      JOINT lCollar
      {
        OFFSET 4.0639 26.6115 -1.1234
        CHANNELS 6 Xposition Yposition Zposition Zrotation Xrotation Yrotation
        JOINT lShldr
        {
          OFFSET 14.1772 0 0
          CHANNELS 6 Xposition Yposition Zposition Zrotation Xrotation Yrotation
          JOINT lForeArm
          {
            OFFSET 26.1234 0 0
            CHANNELS 6 Xposition Yposition Zposition Zrotation Xrotation Yrotation
            JOINT lHand
            {
              OFFSET 27.7188 0 0
              CHANNELS 6 Xposition Yposition Zposition Zrotation Xrotation Yrotation
              JOINT lThumb1
              {
                OFFSET 2.2979 -0.4685 1.8313
                CHANNELS 6 Xposition Yposition Zposition Zrotation Xrotation Yrotation
                JOINT lThumb2
                {
                  OFFSET 5.2953 0 0
                  CHANNELS 6 Xposition Yposition Zposition Zrotation Xrotation Yrotation
                  JOINT lThumb3
                  {
                    OFFSET 3.0181 0 0
                    CHANNELS 6 Xposition Yposition Zposition Zrotation Xrotation Yrotation
                    End Site
                    {
                      OFFSET 2.6294 0 0
                    }
                  }
                }
              }
              JOINT lIndex1
              {
                OFFSET 9.3793 0.2991 2.5924
                CHANNELS 6 Xposition Yposition Zposition Zrotation Xrotation Yrotation
                JOINT lIndex2
                {
                  OFFSET 4.3461 0 0
                  CHANNELS 6 Xposition Yposition Zposition Zrotation Xrotation Yrotation
                  JOINT lIndex3
                  {
                    OFFSET 2.1666 0 0
                    CHANNELS 6 Xposition Yposition Zposition Zrotation Xrotation Yrotation
                    End Site
                    {
                      OFFSET 2.2048 0 0
                    }
                  }
                }
              }
              JOINT lMid1
              {
                OFFSET 9.4769 0.8376 0.2947
                CHANNELS 6 Xposition Yposition Zposition Zrotation Xrotation Yrotation
                JOINT lMid2
                {
                  OFFSET 4.772 0 0
                  CHANNELS 6 Xposition Yposition Zposition Zrotation Xrotation Yrotation
                  JOINT lMid3
                  {
                    OFFSET 2.8722 0 0
                    CHANNELS 6 Xposition Yposition Zposition Zrotation Xrotation Yrotation
                    End Site
                    {
                      OFFSET 2.0959 0 0
                    }
                  }
                }
              }
              JOINT lRing1
              {
                OFFSET 8.6586 1.0176 -1.7016
                CHANNELS 6 Xposition Yposition Zposition Zrotation Xrotation Yrotation
                JOINT lRing2
                {
                  OFFSET 4.5461 0 0
                  CHANNELS 6 Xposition Yposition Zposition Zrotation Xrotation Yrotation
                  JOINT lRing3
                  {
                    OFFSET 2.506 0 0
                    CHANNELS 6 Xposition Yposition Zposition Zrotation Xrotation Yrotation
                    End Site
                    {
                      OFFSET 2.2023 0 0
                    }
                  }
                }
              }
              JOINT lPinky1
              {
                OFFSET 7.6901 0.6618 -3.9096
                CHANNELS 6 Xposition Yposition Zposition Zrotation Xrotation Yrotation
                JOINT lPinky2
                {
                  OFFSET 3.2119 0 0
                  CHANNELS 6 Xposition Yposition Zposition Zrotation Xrotation Yrotation
                  JOINT lPinky3
                  {
                    OFFSET 1.924 0 0
                    CHANNELS 6 Xposition Yposition Zposition Zrotation Xrotation Yrotation
                    End Site
                    {
                      OFFSET 1.7829 0 0
                    }
                  }
                }
              }
            }
          }
        }
      }
      JOINT rCollar
      {
        OFFSET -4.0677 26.6109 -1.1234
        CHANNELS 6 Xposition Yposition Zposition Zrotation Xrotation Yrotation
        JOINT rShldr
        {
          OFFSET -14.1772 0 0
          CHANNELS 6 Xposition Yposition Zposition Zrotation Xrotation Yrotation
          JOINT rForeArm
          {
            OFFSET -26.1234 0 0
            CHANNELS 6 Xposition Yposition Zposition Zrotation Xrotation Yrotation
            JOINT rHand
            {
              OFFSET -27.7188 0 0
              CHANNELS 6 Xposition Yposition Zposition Zrotation Xrotation Yrotation
              JOINT rThumb1
              {
                OFFSET -2.2979 -0.4684 1.8313
                CHANNELS 6 Xposition Yposition Zposition Zrotation Xrotation Yrotation
                JOINT rThumb2
                {
                  OFFSET -5.2953 0 0
                  CHANNELS 6 Xposition Yposition Zposition Zrotation Xrotation Yrotation
                  JOINT rThumb3
                  {
                    OFFSET -3.0181 0 0
                    CHANNELS 6 Xposition Yposition Zposition Zrotation Xrotation Yrotation
                    End Site
                    {
                      OFFSET -2.6294 0 0
                    }
                  }
                }
              }
              JOINT rIndex1
              {
                OFFSET -9.3793 0.2991 2.5924
                CHANNELS 6 Xposition Yposition Zposition Zrotation Xrotation Yrotation
                JOINT rIndex2
                {
                  OFFSET -4.3461 0 0
                  CHANNELS 6 Xposition Yposition Zposition Zrotation Xrotation Yrotation
                  JOINT rIndex3
                  {
                    OFFSET -2.1666 0 0
                    CHANNELS 6 Xposition Yposition Zposition Zrotation Xrotation Yrotation
                    End Site
                    {
                      OFFSET -2.2048 0 0
                    }
                  }
                }
              }
              JOINT rMid1
              {
                OFFSET -9.4769 0.8376 0.2947
                CHANNELS 6 Xposition Yposition Zposition Zrotation Xrotation Yrotation
                JOINT rMid2
                {
                  OFFSET -4.772 0 0
                  CHANNELS 6 Xposition Yposition Zposition Zrotation Xrotation Yrotation
                  JOINT rMid3
                  {
                    OFFSET -2.8722 0 0
                    CHANNELS 6 Xposition Yposition Zposition Zrotation Xrotation Yrotation
                    End Site
                    {
                      OFFSET -2.0959 0 0
                    }
                  }
                }
              }
              JOINT rRing1
              {
                OFFSET -8.6586 1.0176 -1.7016
                CHANNELS 6 Xposition Yposition Zposition Zrotation Xrotation Yrotation
                JOINT rRing2
                {
                  OFFSET -4.5461 0 0
                  CHANNELS 6 Xposition Yposition Zposition Zrotation Xrotation Yrotation
                  JOINT rRing3
                  {
                    OFFSET -2.506 0 0
                    CHANNELS 6 Xposition Yposition Zposition Zrotation Xrotation Yrotation
                    End Site
                    {
                      OFFSET -2.2023 0 0
                    }
                  }
                }
              }
              JOINT rPinky1
              {
                OFFSET -7.6901 0.6618 -3.9096
                CHANNELS 6 Xposition Yposition Zposition Zrotation Xrotation Yrotation
                JOINT rPinky2
                {
                  OFFSET -3.2119 0 0
                  CHANNELS 6 Xposition Yposition Zposition Zrotation Xrotation Yrotation
                  JOINT rPinky3
                  {
                    OFFSET -1.924 0 0
                    CHANNELS 6 Xposition Yposition Zposition Zrotation Xrotation Yrotation
                    End Site
                    {
                      OFFSET -1.7829 0 0
                    }
                  }
                }
              }
            }
          }
        }
      }
    }
  }
  JOINT lThigh
  {
    OFFSET 8.7379 -0.0029 0.0005
    CHANNELS 6 Xposition Yposition Zposition Zrotation Xrotation Yrotation
    JOINT lShin
    {
      OFFSET 0 -46.6676 0
      CHANNELS 6 Xposition Yposition Zposition Zrotation Xrotation Yrotation
      JOINT lFoot
      {
        OFFSET 0 -40.1476 0
        CHANNELS 6 Xposition Yposition Zposition Zrotation Xrotation Yrotation
        JOINT lToes
        {
          OFFSET 0 -8.8846 14.2294
          CHANNELS 6 Xposition Yposition Zposition Zrotation Xrotation Yrotation
          End Site
          {
            OFFSET 0 0 6.296
          }
        }
      }
    }
  }
  JOINT rThigh
  {
    OFFSET -8.7379 0.0029 -0.0005
    CHANNELS 6 Xposition Yposition Zposition Zrotation Xrotation Yrotation
    JOINT rShin
    {
      OFFSET 0 -46.6676 0
      CHANNELS 6 Xposition Yposition Zposition Zrotation Xrotation Yrotation
      JOINT rFoot
      {
        OFFSET 0 -40.1476 0
        CHANNELS 6 Xposition Yposition Zposition Zrotation Xrotation Yrotation
        JOINT rToes
        {
          OFFSET 0 -8.8846 14.2294
          CHANNELS 6 Xposition Yposition Zposition Zrotation Xrotation Yrotation
          End Site
          {
            OFFSET 0 0 6.296
          }
        }
      }
    }
  }
}
MOTION
Frames:	4
Frame Time:	0.0333333
-0.163291 85.6566 0.546495 -2.54001 -12.0242 -28.1266 -8.88178e-16 7.2397 0 -2.47501 13.3929 3.8073 0 16.546 0 -5.62433 28.4749 8.3836 0 34.2149 -7.10543e-15 -2.31332 10.3669 5.33895 -1.33227e-15 6.2923 0 -1.46337 -34.3755 -2.19262 4.0639 26.6115 -1.1234 -18.3044 -55.6906 -45.9939 14.1772 0 0 -64.3567 -4.17889 -35.4414 26.1234 0 0 -0.613484 -0.811165 -27.7327 27.7188 1.42109e-14 0 36.6937 -32.2755 19.1884 2.2979 -0.4685 1.8313 76.9832 49.2581 -93.2212 5.2953 -1.42109e-14 0 -2.80284 -3.62271 -7.88753 3.0181 -7.10543e-15 -7.10543e-15 12.4883 -0.000101838 6.73584e-06 9.3793 0.2991 2.5924 -16.6606 -0.292965 9.94332 4.3461 0 0 -40.3736 -1.45053 4.86032 2.1666 -7.10543e-15 2.84217e-14 -2.1684 4.43879e-06 -1.59158e-06 9.4769 0.8376 0.2947 -20.1799 -10.8626 9.83239 4.772 7.10543e-15 0 -46.4746 -1.51835 3.23643 2.8722 7.10543e-15 -2.84217e-14 3.95741 0.0710973 0.399401 8.6586 1.0176 -1.7016 -22.5679 -12.5736 6.65099 4.5461 0 -1.42109e-14 -45.4411 1.23569 -2.42517 2.506 7.10543e-15 -1.42109e-14 6.7605 -6.42453e-06 -0.000103295 7.6901 0.6618 -3.9096 -25.2535 -16.7941 1.16507 3.2119 -7.10543e-15 1.42109e-14 -50.7667 -0.278796 3.22853 1.924 7.10543e-15 -1.42109e-14 4.4131 -1.27286e-06 2.36422e-06 -4.0677 26.6109 -1.1234 20.6914 -38.6616 50.4931 -14.1772 1.42109e-14 -7.10543e-15 20.3914 6.25832 56.048 -26.1234 -1.42109e-14 0 0.325705 -0.444496 17.1768 -27.7188 -1.42109e-14 7.10543e-15 -45.1446 -47.0389 -40.7402 -2.2979 -0.4684 1.8313 -118.857 54.4587 140.935 -5.2953 0 0 1.70479 2.97475 -2.35003 -3.0181 -2.84217e-14 1.42109e-14 -12.4883 -9.63691e-05 8.7481e-05 -9.3793 0.2991 2.5924 8.89039 0.230564 9.54279 -4.3461 1.77636e-15 -1.42109e-14 21.6706 -0.333712 -3.45452 -2.1666 0 -4.26326e-14 2.1682 3.00439e-06 -1.75966e-08 -9.4769 0.8376 0.2947 27.3154 -5.09957 7.4478 -4.772 0 -1.42109e-14 96.7944 -6.08688 -5.08288 -2.8722 0 2.84217e-14 -3.95751 0.0709978 -0.399401 -8.6586 1.0176 -1.7016 32.799 -3.11636 9.51522 -4.5461 0 1.42109e-14 86.3357 4.33231 4.24836 -2.506 0 0 -6.7605 3.16202e-06 -9.83054e-07 -7.6901 0.6618 -3.9096 37.1215 -7.70572 4.2911 -3.2119 0 0 47.4484 3.57649 -0.976774 -1.924 0 0 -4.413 -1.17676e-05 -6.09334e-07 8.7379 -0.0029 0.0005 21.936 -19.7772 32.2625 -1.77636e-15 -46.6676 7.10543e-15 4.39411 40.8984 -1.89153 3.55271e-15 -40.1476 0 -8.02447 -0.618971 21.6038 0 -8.8846 14.2294 0.0001 4.96962e-17 -0 -8.7379 0.0029 -0.0005 -22.5263 -4.75696 -16.2829 0 -46.6676 -7.10543e-15 -7.18887 54.4003 3.32045 3.55271e-15 -40.1476 2.44249e-15 20.5019 -31.2647 11.215 0 -8.8846 14.2294 4.96962e-17 0 -0 
-0.170428 85.6589 0.551871 -2.55025 -12.0171 -28.1062 0 7.2397 3.55271e-15 -2.47567 13.3881 3.8087 0 16.546 -4.44089e-16 -5.62846 28.465 8.38717 -1.33227e-15 34.2149 0 -2.34794 10.3792 5.33589 -4.44089e-16 6.2923 0 -1.44351 -34.3802 -2.18283 4.0639 26.6115 -1.1234 -18.3278 -55.6798 -46.0113 14.1772 0 0 -64.3574 -4.21078 -35.2023 26.1234 0 0 -0.627073 -0.826864 -28.1933 27.7188 0 2.84217e-14 36.9041 -32.1367 19.893 2.2979 -0.4685 1.8313 76.3254 49.2707 -92.6854 5.2953 2.13163e-14 0 -2.80272 -3.62205 -7.88782 3.0181 -2.13163e-14 0 12.4883 -0.000101838 6.73584e-06 9.3793 0.2991 2.5924 -16.6168 -0.299208 9.88832 4.3461 3.55271e-15 2.84217e-14 -40.3834 -1.45176 4.86091 2.1666 0 0 -2.1684 4.43879e-06 -1.59158e-06 9.4769 0.8376 0.2947 -20.1369 -10.8639 9.79099 4.772 0 -2.84217e-14 -46.476 -1.51841 3.23651 2.8722 -7.10543e-15 0 3.95741 0.0710973 0.399401 8.6586 1.0176 -1.7016 -22.5916 -12.576 6.64242 4.5461 7.10543e-15 0 -45.4124 1.23468 -2.42362 2.506 0 1.42109e-14 6.7605 -6.42453e-06 -0.000103295 7.6901 0.6618 -3.9096 -25.2364 -16.7882 1.0768 3.2119 0 1.42109e-14 -50.7454 -0.276815 3.22643 1.924 0 -1.42109e-14 4.4131 -1.27286e-06 2.36422e-06 -4.0677 26.6109 -1.1234 20.6858 -38.665 50.4908 -14.1772 -1.42109e-14 0 20.7069 6.13903 55.933 -26.1234 1.42109e-14 7.10543e-15 0.33068 -0.451947 17.3815 -27.7188 -1.42109e-14 -7.10543e-15 -44.7754 -46.5591 -40.8142 -2.2979 -0.4684 1.8313 -118.877 54.7075 140.923 -5.2953 1.42109e-14 -1.42109e-14 1.75523 2.97206 -2.36339 -3.0181 0 0 -12.4883 -9.63691e-05 8.7481e-05 -9.3793 0.2991 2.5924 8.79846 0.231484 9.53026 -4.3461 1.77636e-15 -1.42109e-14 21.6745 -0.333931 -3.45501 -2.1666 0 4.26326e-14 2.1682 3.00439e-06 -1.75966e-08 -9.4769 0.8376 0.2947 27.1296 -5.09753 7.37932 -4.772 3.55271e-15 4.26326e-14 96.7951 -6.08694 -5.08288 -2.8722 -1.42109e-14 0 -3.95751 0.0709978 -0.399401 -8.6586 1.0176 -1.7016 32.6839 -3.11324 9.48415 -4.5461 0 0 86.3582 4.33399 4.24818 -2.506 -1.42109e-14 1.42109e-14 -6.7605 3.16202e-06 -9.83054e-07 -7.6901 0.6618 -3.9096 36.9245 -7.70491 4.24953 -3.2119 0 -1.42109e-14 47.4455 3.5766 -0.976775 -1.924 0 1.42109e-14 -4.413 -1.17676e-05 -6.09334e-07 8.7379 -0.0029 0.0005 21.949 -19.7797 32.2628 0 -46.6676 -7.10543e-15 4.39326 40.8931 -1.89185 3.55271e-15 -40.1476 7.10543e-15 -8.02796 -0.617025 21.5944 -3.55271e-15 -8.8846 14.2294 0.0001 -4.96962e-17 -6.36111e-15 -8.7379 0.0029 -0.0005 -22.5017 -4.74102 -16.2801 0 -46.6676 -7.10543e-15 -7.18641 54.3913 3.31834 0 -40.1476 -6.66134e-16 20.4984 -31.2628 11.187 3.55271e-15 -8.8846 14.2294 -4.96962e-17 0 3.18055e-15 
-0.176576 85.6599 0.553534 -2.55227 -12.0177 -28.0774 0 7.2397 0 -2.47543 13.3866 3.80572 2.22045e-16 16.546 -4.44089e-16 -5.62851 28.4621 8.38096 8.88178e-16 34.2149 -7.10543e-15 -2.4251 10.3971 5.34773 -4.44089e-16 6.2923 -1.42109e-14 -1.40985 -34.3947 -2.14376 4.0639 26.6115 -1.1234 -18.3645 -55.6628 -46.0386 14.1772 1.42109e-14 0 -64.4271 -4.25586 -35.0687 26.1234 0 0 -0.633249 -0.833733 -28.3978 27.7188 0 0 37.0736 -32.283 20.1802 2.2979 -0.4685 1.8313 74.6985 49.3415 -91.3859 5.2953 0 0 -2.80257 -3.62355 -7.88723 3.0181 7.10543e-15 7.10543e-15 12.4883 -0.000101838 6.73584e-06 9.3793 0.2991 2.5924 -16.5848 -0.304073 9.85177 4.3461 7.10543e-15 -2.84217e-14 -40.3776 -1.45106 4.86056 2.1666 0 0 -2.1684 4.43879e-06 -1.59158e-06 9.4769 0.8376 0.2947 -20.1185 -10.8655 9.73974 4.772 0 0 -46.4266 -1.51569 3.23437 2.8722 0 0 3.95741 0.0710973 0.399401 8.6586 1.0176 -1.7016 -22.6119 -12.5783 6.64079 4.5461 7.10543e-15 1.42109e-14 -45.3691 1.23307 -2.42131 2.506 0 0 6.7605 -6.42453e-06 -0.000103295 7.6901 0.6618 -3.9096 -25.1998 -16.7792 0.947403 3.2119 -7.10543e-15 -1.42109e-14 -50.7039 -0.272959 3.22234 1.924 0 1.42109e-14 4.4131 -1.27286e-06 2.36422e-06 -4.0677 26.6109 -1.1234 20.6599 -38.6865 50.4726 -14.1772 0 0 21.1632 5.98077 55.7884 -26.1234 1.42109e-14 0 0.334833 -0.458164 17.5504 -27.7188 0 0 -44.1202 -45.9084 -40.2945 -2.2979 -0.4684 1.8313 -118.88 54.9584 140.932 -5.2953 0 0 1.80714 2.9693 -2.37715 -3.0181 0 2.84217e-14 -12.4883 -9.63691e-05 8.7481e-05 -9.3793 0.2991 2.5924 8.72588 0.231858 9.5409 -4.3461 1.77636e-15 1.42109e-14 21.6857 -0.334573 -3.45646 -2.1666 -7.10543e-15 0 2.1682 3.00439e-06 -1.75966e-08 -9.4769 0.8376 0.2947 26.9419 -5.09596 7.33329 -4.772 0 -1.42109e-14 96.794 -6.08683 -5.08289 -2.8722 1.42109e-14 0 -3.95751 0.0709978 -0.399401 -8.6586 1.0176 -1.7016 32.5928 -3.11123 9.47436 -4.5461 7.10543e-15 2.84217e-14 86.3571 4.33392 4.2482 -2.506 0 0 -6.7605 3.16202e-06 -9.83054e-07 -7.6901 0.6618 -3.9096 36.6518 -7.70241 4.19854 -3.2119 3.55271e-15 1.42109e-14 47.5265 3.57238 -0.978069 -1.924 1.42109e-14 0 -4.413 -1.17676e-05 -6.09334e-07 8.7379 -0.0029 0.0005 21.9522 -19.786 32.2679 0 -46.6676 1.42109e-14 4.39262 40.8892 -1.89212 -3.55271e-15 -40.1476 0 -8.01093 -0.6068 21.573 0 -8.8846 14.2294 0.0001 -4.96962e-17 -0 -8.7379 0.0029 -0.0005 -22.4927 -4.7238 -16.2902 7.10543e-15 -46.6676 0 -7.18574 54.389 3.31753 3.55271e-15 -40.1476 1.77636e-15 20.5 -31.2633 11.1789 3.55271e-15 -8.8846 14.2294 4.96962e-17 0 6.36111e-15 
-0.179331 85.6604 0.547922 -2.5489 -12.0166 -28.0531 0 7.2397 0 -2.47659 13.387 3.79837 0 16.546 4.44089e-16 -5.62964 28.4632 8.36602 2.22045e-16 34.2149 7.10543e-15 -2.51004 10.3876 5.36701 0 6.2923 0 -1.39022 -34.4023 -2.09603 4.0639 26.6115 -1.1234 -18.4053 -55.6441 -46.0682 14.1772 1.42109e-14 1.42109e-14 -64.5135 -4.30593 -35.0063 26.1234 0 1.42109e-14 -0.636177 -0.836795 -28.491 27.7188 0 -1.42109e-14 37.2725 -32.4688 20.4838 2.2979 -0.4685 1.8313 72.0587 49.4397 -89.2856 5.2953 2.13163e-14 3.55271e-15 -2.80206 -3.62619 -7.88629 3.0181 0 0 12.4883 -0.000101838 6.73584e-06 9.3793 0.2991 2.5924 -16.57 -0.307958 9.81858 4.3461 -7.10543e-15 0 -40.3425 -1.44659 4.85847 2.1666 -7.10543e-15 -2.84217e-14 -2.1684 4.43879e-06 -1.59158e-06 9.4769 0.8376 0.2947 -20.0938 -10.8661 9.71358 4.772 1.42109e-14 -2.84217e-14 -46.3436 -1.51115 3.23078 2.8722 0 -2.84217e-14 3.95741 0.0710973 0.399401 8.6586 1.0176 -1.7016 -22.5972 -12.5791 6.62175 4.5461 7.10543e-15 0 -45.3165 1.23115 -2.41851 2.506 0 0 6.7605 -6.42453e-06 -0.000103295 7.6901 0.6618 -3.9096 -25.1323 -16.7692 0.818525 3.2119 0 1.42109e-14 -50.6501 -0.267949 3.217 1.924 7.10543e-15 0 4.4131 -1.27286e-06 2.36422e-06 -4.0677 26.6109 -1.1234 20.6642 -38.6771 50.483 -14.1772 -2.84217e-14 0 21.8944 5.63972 55.6024 -26.1234 1.42109e-14 0 0.338023 -0.462853 17.677 -27.7188 0 -7.10543e-15 -43.0604 -45.0038 -39.3926 -2.2979 -0.4684 1.8313 -118.832 55.1541 140.893 -5.2953 0 0 1.84703 2.96716 -2.38768 -3.0181 0 -1.42109e-14 -12.4883 -9.63691e-05 8.7481e-05 -9.3793 0.2991 2.5924 8.64424 0.232159 9.55491 -4.3461 -7.10543e-15 1.42109e-14 21.7038 -0.335545 -3.45882 -2.1666 0 0 2.1682 3.00439e-06 -1.75966e-08 -9.4769 0.8376 0.2947 26.7196 -5.09375 7.2795 -4.772 0 -2.84217e-14 96.7872 -6.08624 -5.08272 -2.8722 0 -2.84217e-14 -3.95751 0.0709978 -0.399401 -8.6586 1.0176 -1.7016 32.5166 -3.10925 9.45715 -4.5461 -7.10543e-15 -1.42109e-14 86.3759 4.33538 4.24806 -2.506 -1.42109e-14 0 -6.7605 3.16202e-06 -9.83054e-07 -7.6901 0.6618 -3.9096 36.3286 -7.69796 4.16657 -3.2119 0 0 47.6356 3.56661 -0.979823 -1.924 0 -1.42109e-14 -4.413 -1.17676e-05 -6.09334e-07 8.7379 -0.0029 0.0005 21.9512 -19.8023 32.2737 1.77636e-15 -46.6676 0 4.39173 40.8837 -1.89248 0 -40.1476 0 -7.98154 -0.577164 21.5578 3.55271e-15 -8.8846 14.2294 0.0001 4.96962e-17 6.36111e-15 -8.7379 0.0029 -0.0005 -22.4915 -4.72143 -16.3079 -3.55271e-15 -46.6676 -7.10543e-15 -7.18713 54.3942 3.31808 3.55271e-15 -40.1476 1.77636e-15 20.4926 -31.2611 11.1768 0 -8.8846 14.2294 4.96962e-17 0 3.18055e-15 
